<mxfile host="65bd71144e">
    <diagram id="IW0wSxrP3OtwqAu8rIJg" name="Page-1">
        <mxGraphModel dx="350" dy="265" grid="1" gridSize="10" guides="1" tooltips="1" connect="1" arrows="1" fold="1" page="1" pageScale="1" pageWidth="1100" pageHeight="850" math="0" shadow="0">
            <root>
                <mxCell id="0"/>
                <mxCell id="1" parent="0"/>
                <mxCell id="18" value="" style="ellipse;whiteSpace=wrap;html=1;aspect=fixed;" parent="1" vertex="1">
                    <mxGeometry x="295.62" y="290" width="8.75" height="8.75" as="geometry"/>
                </mxCell>
                <mxCell id="22" style="edgeStyle=none;html=1;exitX=0.5;exitY=0;exitDx=0;exitDy=0;entryX=0.5;entryY=1;entryDx=0;entryDy=0;strokeColor=#FFB366;endSize=3;" parent="1" source="24" target="18" edge="1">
                    <mxGeometry relative="1" as="geometry"/>
                </mxCell>
                <mxCell id="23" value="x" style="edgeLabel;html=1;align=center;verticalAlign=middle;resizable=0;points=[];fontColor=#FFB366;" parent="22" vertex="1" connectable="0">
                    <mxGeometry x="-0.1091" relative="1" as="geometry">
                        <mxPoint as="offset"/>
                    </mxGeometry>
                </mxCell>
                <mxCell id="24" value="R" style="text;html=1;strokeColor=none;fillColor=none;align=center;verticalAlign=middle;whiteSpace=wrap;rounded=0;fontColor=#FFB366;fontSize=10;" parent="1" vertex="1">
                    <mxGeometry x="285" y="319.87" width="30" height="10.13" as="geometry"/>
                </mxCell>
                <mxCell id="25" value="S" style="text;html=1;strokeColor=none;fillColor=none;align=center;verticalAlign=middle;whiteSpace=wrap;rounded=0;fontColor=#66B2FF;fontSize=10;" parent="1" vertex="1">
                    <mxGeometry x="320" y="319.87" width="30" height="10.13" as="geometry"/>
                </mxCell>
                <mxCell id="26" value="T" style="text;html=1;strokeColor=none;fillColor=none;align=center;verticalAlign=middle;whiteSpace=wrap;rounded=0;fontColor=#FF6666;fontSize=10;" parent="1" vertex="1">
                    <mxGeometry x="250" y="320" width="30" height="10" as="geometry"/>
                </mxCell>
                <mxCell id="27" value="" style="curved=1;endArrow=classic;html=1;exitX=0.5;exitY=0;exitDx=0;exitDy=0;entryX=1;entryY=1;entryDx=0;entryDy=0;strokeColor=#66B2FF;dashed=1;endSize=3;" parent="1" source="25" target="18" edge="1">
                    <mxGeometry width="50" height="50" relative="1" as="geometry">
                        <mxPoint x="290" y="299.87" as="sourcePoint"/>
                        <mxPoint x="340" y="249.87" as="targetPoint"/>
                        <Array as="points">
                            <mxPoint x="330" y="310"/>
                        </Array>
                    </mxGeometry>
                </mxCell>
                <mxCell id="28" value="x" style="edgeLabel;html=1;align=center;verticalAlign=middle;resizable=0;points=[];fontColor=#66B2FF;" parent="27" vertex="1" connectable="0">
                    <mxGeometry x="-0.2798" y="5" relative="1" as="geometry">
                        <mxPoint x="-1" y="-6" as="offset"/>
                    </mxGeometry>
                </mxCell>
                <mxCell id="29" value="" style="curved=1;endArrow=classic;html=1;exitX=0.5;exitY=0;exitDx=0;exitDy=0;entryX=0;entryY=1;entryDx=0;entryDy=0;strokeColor=#FF6666;dashed=1;dashPattern=1 1;endSize=3;" parent="1" source="26" target="18" edge="1">
                    <mxGeometry width="50" height="50" relative="1" as="geometry">
                        <mxPoint x="270" y="310" as="sourcePoint"/>
                        <mxPoint x="300" y="240" as="targetPoint"/>
                        <Array as="points">
                            <mxPoint x="270" y="310"/>
                        </Array>
                    </mxGeometry>
                </mxCell>
                <mxCell id="30" value="x" style="edgeLabel;html=1;align=center;verticalAlign=middle;resizable=0;points=[];fontColor=#FF6666;" parent="29" vertex="1" connectable="0">
                    <mxGeometry x="-0.0072" y="-4" relative="1" as="geometry">
                        <mxPoint x="-6" y="-3" as="offset"/>
                    </mxGeometry>
                </mxCell>
                <mxCell id="31" value="" style="curved=1;endArrow=classic;html=1;entryX=1;entryY=1;entryDx=0;entryDy=0;strokeColor=#66B2FF;dashed=1;endSize=3;exitX=1;exitY=0;exitDx=0;exitDy=0;" parent="1" source="18" target="43" edge="1">
                    <mxGeometry width="50" height="50" relative="1" as="geometry">
                        <mxPoint x="330" y="240" as="sourcePoint"/>
                        <mxPoint x="303.53553390592634" y="238.5355339059264" as="targetPoint"/>
                        <Array as="points">
                            <mxPoint x="330" y="270"/>
                        </Array>
                    </mxGeometry>
                </mxCell>
                <mxCell id="32" value="b" style="edgeLabel;html=1;align=center;verticalAlign=middle;resizable=0;points=[];fontColor=#66B2FF;" parent="31" vertex="1" connectable="0">
                    <mxGeometry x="0.5683" y="2" relative="1" as="geometry">
                        <mxPoint x="4" y="14" as="offset"/>
                    </mxGeometry>
                </mxCell>
                <mxCell id="36" value="" style="ellipse;whiteSpace=wrap;html=1;aspect=fixed;" parent="1" vertex="1">
                    <mxGeometry x="295.62" y="250" width="8.75" height="8.75" as="geometry"/>
                </mxCell>
                <mxCell id="37" value="" style="ellipse;whiteSpace=wrap;html=1;aspect=fixed;" parent="1" vertex="1">
                    <mxGeometry x="295.62" y="210" width="8.75" height="8.75" as="geometry"/>
                </mxCell>
                <mxCell id="38" style="edgeStyle=none;html=1;exitX=0.5;exitY=0;exitDx=0;exitDy=0;entryX=0.5;entryY=1;entryDx=0;entryDy=0;strokeColor=#FFB366;endSize=3;" parent="1" source="18" target="36" edge="1">
                    <mxGeometry relative="1" as="geometry">
                        <mxPoint x="310" y="329.87" as="sourcePoint"/>
                        <mxPoint x="310.005" y="294.37" as="targetPoint"/>
                    </mxGeometry>
                </mxCell>
                <mxCell id="39" value="a" style="edgeLabel;html=1;align=center;verticalAlign=middle;resizable=0;points=[];fontColor=#FFB366;" parent="38" vertex="1" connectable="0">
                    <mxGeometry x="-0.1091" relative="1" as="geometry">
                        <mxPoint as="offset"/>
                    </mxGeometry>
                </mxCell>
                <mxCell id="41" value="" style="curved=1;endArrow=classic;html=1;exitX=1;exitY=0.5;exitDx=0;exitDy=0;entryX=1;entryY=1;entryDx=0;entryDy=0;strokeColor=#FF6666;dashed=1;dashPattern=1 1;endSize=3;" parent="1" source="18" target="37" edge="1">
                    <mxGeometry width="50" height="50" relative="1" as="geometry">
                        <mxPoint x="275" y="330" as="sourcePoint"/>
                        <mxPoint x="306.90140783230885" y="307.4685921676911" as="targetPoint"/>
                        <Array as="points">
                            <mxPoint x="350" y="260"/>
                        </Array>
                    </mxGeometry>
                </mxCell>
                <mxCell id="42" value="c" style="edgeLabel;html=1;align=center;verticalAlign=middle;resizable=0;points=[];fontColor=#FF6666;" parent="41" vertex="1" connectable="0">
                    <mxGeometry x="-0.0072" y="-4" relative="1" as="geometry">
                        <mxPoint x="-24" y="-3" as="offset"/>
                    </mxGeometry>
                </mxCell>
                <mxCell id="43" value="" style="ellipse;whiteSpace=wrap;html=1;aspect=fixed;" parent="1" vertex="1">
                    <mxGeometry x="295.62" y="230" width="8.75" height="8.75" as="geometry"/>
                </mxCell>
                <mxCell id="44" value="x" style="text;html=1;strokeColor=none;fillColor=none;align=center;verticalAlign=middle;whiteSpace=wrap;rounded=0;fontSize=11;fontColor=#9C9C9C;" vertex="1" parent="1">
                    <mxGeometry x="275" y="272" width="20" height="8" as="geometry"/>
                </mxCell>
                <mxCell id="45" value="x, a" style="text;html=1;strokeColor=none;fillColor=none;align=center;verticalAlign=middle;whiteSpace=wrap;rounded=0;fontSize=11;fontColor=#9C9C9C;" vertex="1" parent="1">
                    <mxGeometry x="265" y="241" width="29" height="8" as="geometry"/>
                </mxCell>
                <mxCell id="46" value="x, a, b" style="text;html=1;strokeColor=none;fillColor=none;align=center;verticalAlign=middle;whiteSpace=wrap;rounded=0;fontSize=11;fontColor=#9C9C9C;" vertex="1" parent="1">
                    <mxGeometry x="253" y="219.75" width="40" height="8" as="geometry"/>
                </mxCell>
            </root>
        </mxGraphModel>
    </diagram>
</mxfile>